<svg width="298" height="44" viewBox="0 0 298 44" fill="none" xmlns="http://www.w3.org/2000/svg">
    <rect width="298" height="44" rx="12" fill="none"/>
    <rect x="63" y="10" width="24" height="24" rx="12" fill="#FC3F1D"/>
    <path d="M76.6911 29.212H79.1981V14.812H75.5515C71.8841 14.812 69.9572 16.6975 69.9572 19.4739C69.9572 21.6909 71.0139 22.9962 72.8994 24.3429L69.6257 29.212H72.34L75.9866 23.7628L74.7227 22.9133C73.1895 21.8773 72.4436 21.0693 72.4436 19.3288C72.4436 17.7956 73.521 16.7596 75.5722 16.7596H76.6911V29.212Z"
          fill="white"/>
    <path d="M100.396 15.528H104.3C105.665 15.528 106.705 15.7414 107.42 16.168C108.135 16.5947 108.492 17.3147 108.492 18.328C108.492 18.744 108.433 19.1067 108.316 19.416C108.199 19.7147 108.028 19.976 107.804 20.2C107.591 20.4134 107.329 20.5894 107.02 20.728C106.711 20.8667 106.369 20.9734 105.996 21.048C106.956 21.1654 107.681 21.4267 108.172 21.832C108.663 22.2374 108.908 22.856 108.908 23.688C108.908 24.2854 108.791 24.7974 108.556 25.224C108.321 25.64 107.996 25.9814 107.58 26.248C107.164 26.504 106.673 26.696 106.108 26.824C105.543 26.9414 104.929 27 104.268 27H100.396V15.528ZM102.332 17.208V20.264H104.396C105.036 20.264 105.553 20.1307 105.948 19.864C106.343 19.5867 106.54 19.1547 106.54 18.568C106.54 18.0347 106.359 17.6774 105.996 17.496C105.644 17.304 105.143 17.208 104.492 17.208H102.332ZM102.332 21.928V25.336H104.46C104.823 25.336 105.153 25.3094 105.452 25.256C105.751 25.192 106.007 25.096 106.22 24.968C106.433 24.8294 106.599 24.6534 106.716 24.44C106.833 24.216 106.892 23.944 106.892 23.624C106.892 22.9947 106.684 22.5574 106.268 22.312C105.863 22.056 105.207 21.928 104.3 21.928H102.332Z"
          fill="white"/>
    <path d="M114.273 27.16C113.686 27.16 113.142 27.064 112.641 26.872C112.139 26.68 111.702 26.4027 111.329 26.04C110.966 25.6667 110.678 25.2134 110.465 24.68C110.262 24.1467 110.161 23.5334 110.161 22.84C110.161 22.1467 110.262 21.5334 110.465 21C110.678 20.4667 110.966 20.0187 111.329 19.656C111.702 19.2827 112.139 19.0054 112.641 18.824C113.142 18.632 113.686 18.536 114.273 18.536C114.859 18.536 115.403 18.632 115.905 18.824C116.406 19.0054 116.843 19.2827 117.217 19.656C117.59 20.0187 117.883 20.4667 118.097 21C118.31 21.5334 118.417 22.1467 118.417 22.84C118.417 23.5334 118.31 24.1467 118.097 24.68C117.883 25.2134 117.59 25.6667 117.217 26.04C116.843 26.4027 116.406 26.68 115.905 26.872C115.403 27.064 114.859 27.16 114.273 27.16ZM114.273 25.608C114.913 25.608 115.441 25.384 115.857 24.936C116.283 24.488 116.497 23.7894 116.497 22.84C116.497 21.9014 116.283 21.208 115.857 20.76C115.441 20.3014 114.913 20.072 114.273 20.072C113.643 20.072 113.115 20.3014 112.689 20.76C112.273 21.208 112.065 21.9014 112.065 22.84C112.065 23.7894 112.273 24.488 112.689 24.936C113.115 25.384 113.643 25.608 114.273 25.608Z"
          fill="white"/>
    <path d="M123.714 17.704C123.266 17.704 122.876 17.6454 122.546 17.528C122.226 17.4107 121.954 17.2507 121.73 17.048C121.516 16.8347 121.356 16.5894 121.25 16.312C121.143 16.024 121.09 15.72 121.09 15.4H122.722C122.722 15.7734 122.807 16.0454 122.978 16.216C123.159 16.376 123.404 16.456 123.714 16.456C124.023 16.456 124.263 16.376 124.434 16.216C124.604 16.0454 124.69 15.7734 124.69 15.4H126.338C126.338 15.72 126.284 16.024 126.178 16.312C126.071 16.5894 125.906 16.8347 125.682 17.048C125.468 17.2507 125.196 17.4107 124.866 17.528C124.535 17.6454 124.151 17.704 123.714 17.704ZM121.81 24.488L125.65 18.696H127.474V27H125.634V21.24L121.826 27H119.97V18.696H121.81V24.488Z"
          fill="white"/>
    <path d="M133.275 20.2V27H131.419V20.2H128.907V18.696H135.835V20.2H133.275Z" fill="white"/>
    <path d="M139.091 24.488L142.931 18.696H144.755V27H142.915V21.24L139.107 27H137.251V18.696H139.091V24.488Z"
          fill="white"/>
    <path d="M154.184 27.16C153.512 27.16 152.91 27.064 152.376 26.872C151.843 26.6694 151.39 26.3867 151.016 26.024C150.643 25.6507 150.355 25.1974 150.152 24.664C149.95 24.1307 149.848 23.5227 149.848 22.84C149.848 22.168 149.95 21.5654 150.152 21.032C150.355 20.4987 150.643 20.0507 151.016 19.688C151.39 19.3147 151.848 19.032 152.392 18.84C152.936 18.6374 153.544 18.536 154.216 18.536C154.792 18.536 155.294 18.6 155.72 18.728C156.158 18.856 156.504 19.016 156.76 19.208V20.744C156.43 20.5307 156.067 20.3654 155.672 20.248C155.288 20.1307 154.84 20.072 154.328 20.072C152.611 20.072 151.752 20.9947 151.752 22.84C151.752 24.6854 152.595 25.608 154.28 25.608C154.824 25.608 155.288 25.5494 155.672 25.432C156.067 25.304 156.43 25.144 156.76 24.952V26.488C156.483 26.6694 156.136 26.8294 155.72 26.968C155.304 27.096 154.792 27.16 154.184 27.16Z"
          fill="white"/>
    <path d="M162.097 19.128C162.097 18.52 162.204 17.992 162.417 17.544C162.631 17.0854 162.929 16.712 163.313 16.424C163.697 16.1254 164.156 15.9014 164.689 15.752C165.233 15.6027 165.836 15.528 166.497 15.528H170.225V27H168.273V22.584H166.497L163.569 27H161.313L164.545 22.296C163.713 22.0934 163.095 21.7254 162.689 21.192C162.295 20.648 162.097 19.96 162.097 19.128ZM168.273 20.968V17.208H166.481C165.756 17.208 165.175 17.352 164.737 17.64C164.311 17.9174 164.097 18.3974 164.097 19.08C164.097 19.752 164.289 20.2374 164.673 20.536C165.057 20.824 165.601 20.968 166.305 20.968H168.273Z"
          fill="white"/>
    <path d="M177.845 23.496H174.341V27H172.485V18.696H174.341V21.992H177.845V18.696H179.701V27H177.845V23.496Z"
          fill="white"/>
    <path d="M181.558 25.496C181.803 25.2827 181.995 24.9894 182.134 24.616C182.283 24.2427 182.401 23.7787 182.486 23.224C182.571 22.6587 182.635 22.0027 182.678 21.256C182.721 20.5094 182.758 19.656 182.79 18.696H188.87V25.496H190.118V29.368H188.502L188.358 27H182.63L182.486 29.368H180.854V25.496H181.558ZM187.014 25.496V20.2H184.39C184.337 21.512 184.246 22.6 184.118 23.464C184.001 24.3174 183.803 24.9947 183.526 25.496H187.014Z"
          fill="white"/>
    <path d="M198.273 26.392C198.156 26.4667 198.012 26.552 197.841 26.648C197.67 26.7334 197.468 26.8134 197.233 26.888C196.998 26.9627 196.726 27.0267 196.417 27.08C196.108 27.1334 195.756 27.16 195.361 27.16C193.836 27.16 192.694 26.7814 191.937 26.024C191.19 25.2667 190.817 24.2054 190.817 22.84C190.817 22.168 190.918 21.5654 191.121 21.032C191.324 20.4987 191.606 20.0507 191.969 19.688C192.332 19.3147 192.764 19.032 193.265 18.84C193.766 18.6374 194.316 18.536 194.913 18.536C195.532 18.536 196.086 18.6374 196.577 18.84C197.078 19.0427 197.489 19.3467 197.809 19.752C198.129 20.1574 198.348 20.6587 198.465 21.256C198.593 21.8534 198.598 22.552 198.481 23.352H192.737C192.812 24.1094 193.062 24.68 193.489 25.064C193.916 25.4374 194.582 25.624 195.489 25.624C196.15 25.624 196.7 25.544 197.137 25.384C197.585 25.2134 197.964 25.0374 198.273 24.856V26.392ZM194.913 20.008C194.369 20.008 193.91 20.1734 193.537 20.504C193.164 20.8347 192.918 21.3254 192.801 21.976H196.705C196.726 21.304 196.577 20.808 196.257 20.488C195.937 20.168 195.489 20.008 194.913 20.008Z"
          fill="white"/>
    <path d="M202.78 23.624H202.06V27H200.204V18.696H202.06V22.12H202.844L205.484 18.696H207.436L204.3 22.696L207.564 27H205.372L202.78 23.624Z"
          fill="white"/>
    <path d="M212.231 27.16C211.559 27.16 210.956 27.064 210.423 26.872C209.89 26.6694 209.436 26.3867 209.063 26.024C208.69 25.6507 208.402 25.1974 208.199 24.664C207.996 24.1307 207.895 23.5227 207.895 22.84C207.895 22.168 207.996 21.5654 208.199 21.032C208.402 20.4987 208.69 20.0507 209.063 19.688C209.436 19.3147 209.895 19.032 210.439 18.84C210.983 18.6374 211.591 18.536 212.263 18.536C212.839 18.536 213.34 18.6 213.767 18.728C214.204 18.856 214.551 19.016 214.807 19.208V20.744C214.476 20.5307 214.114 20.3654 213.719 20.248C213.335 20.1307 212.887 20.072 212.375 20.072C210.658 20.072 209.799 20.9947 209.799 22.84C209.799 24.6854 210.642 25.608 212.327 25.608C212.871 25.608 213.335 25.5494 213.719 25.432C214.114 25.304 214.476 25.144 214.807 24.952V26.488C214.53 26.6694 214.183 26.8294 213.767 26.968C213.351 27.096 212.839 27.16 212.231 27.16Z"
          fill="white"/>
    <path d="M222.16 15.528V27H220.224V15.528H222.16Z" fill="white"/>
    <path d="M224.615 15.528H228.487C229.297 15.528 230.049 15.6187 230.743 15.8C231.447 15.9814 232.055 16.28 232.567 16.696C233.089 17.112 233.495 17.6614 233.783 18.344C234.081 19.0267 234.231 19.8694 234.231 20.872C234.231 21.8854 234.081 22.776 233.783 23.544C233.495 24.3014 233.084 24.936 232.551 25.448C232.028 25.96 231.404 26.3494 230.679 26.616C229.964 26.872 229.18 27 228.327 27H224.615V15.528ZM226.551 17.208V25.336H228.391C228.956 25.336 229.468 25.2507 229.927 25.08C230.396 24.9094 230.796 24.648 231.127 24.296C231.468 23.944 231.729 23.496 231.911 22.952C232.103 22.3974 232.199 21.7414 232.199 20.984C232.199 20.2374 232.108 19.624 231.927 19.144C231.745 18.6534 231.489 18.264 231.159 17.976C230.839 17.688 230.455 17.4907 230.007 17.384C229.559 17.2667 229.073 17.208 228.551 17.208H226.551Z"
          fill="white"/>
</svg>
